<?xml version="1.0" standalone="no"?>
<!DOCTYPE svg PUBLIC "-//W3C//DTD SVG 20010904//EN"
 "http://www.w3.org/TR/2001/REC-SVG-20010904/DTD/svg10.dtd">
<svg version="1.0" xmlns="http://www.w3.org/2000/svg"
 width="260.000000pt" height="260.000000pt" viewBox="0 0 260.000000 260.000000"
 preserveAspectRatio="xMidYMid meet">
<metadata>
Created by potrace 1.11, written by Peter Selinger 2001-2013
</metadata>
<g transform="translate(0.000000,260.000000) scale(0.100000,-0.100000)"
fill="#000000" stroke="none">
<path d="M1329 2595 c-1 -3 -2 -8 -3 -12 -4 -18 -39 -119 -45 -128 -3 -5 -6
-14 -8 -20 -2 -14 -24 -76 -35 -100 -4 -11 -10 -29 -13 -40 -2 -11 -17 -58
-34 -104 -17 -46 -28 -87 -26 -91 3 -4 -2 -13 -9 -19 -8 -7 -17 -30 -21 -52
-4 -21 -11 -41 -15 -44 -5 -3 -6 -13 -3 -22 4 -10 2 -14 -4 -10 -10 6 -40 -86
-35 -105 1 -5 -2 -8 -8 -8 -5 0 -10 -11 -10 -25 0 -14 -5 -25 -11 -25 -6 0 -9
-9 -6 -20 3 -11 1 -20 -4 -20 -5 0 -9 -9 -9 -20 0 -11 -5 -20 -11 -20 -5 0 -7
-4 -4 -10 3 -5 3 -11 -2 -11 -58 -9 -68 -4 -54 33 4 12 11 52 15 88 4 36 13
77 20 91 8 15 10 33 5 40 -4 7 -4 20 0 28 5 9 7 26 6 39 -1 12 1 22 5 22 4 0
7 6 7 13 2 30 18 134 28 180 3 12 7 38 10 59 3 20 9 57 14 83 8 45 8 46 -13
41 -11 -3 -24 -6 -27 -6 -3 0 -11 -12 -18 -26 -6 -15 -14 -24 -17 -22 -8 8
-75 -64 -86 -91 -5 -14 -8 -41 -8 -61 1 -19 1 -37 1 -40 -5 -16 -12 -127 -14
-200 -1 -47 -5 -89 -8 -95 -4 -5 -3 -19 1 -30 4 -11 4 -31 1 -45 -4 -14 -6
-46 -6 -72 1 -27 -1 -49 -5 -50 -3 0 -17 -2 -32 -3 -36 -3 -41 15 -44 135 -1
52 -3 95 -4 95 -1 0 -4 29 -6 65 -2 36 -6 81 -8 100 -2 19 -4 41 -5 48 -1 15
-43 6 -50 -11 -2 -5 -12 -18 -22 -28 -24 -24 -38 -79 -28 -107 5 -12 6 -22 2
-22 -3 0 0 -6 6 -14 7 -8 13 -37 14 -65 1 -28 5 -51 8 -51 3 0 6 -6 6 -12 1
-7 5 -33 9 -58 14 -85 11 -102 -14 -106 -18 -3 -26 3 -39 33 -9 21 -17 40 -18
43 -1 3 -5 17 -9 33 -5 15 -13 27 -18 27 -6 0 -8 6 -5 14 3 8 3 17 -1 21 -4 4
-7 10 -8 13 -2 16 -34 81 -42 86 -5 3 -24 -11 -43 -30 -28 -28 -31 -37 -19
-44 8 -5 11 -12 7 -16 -4 -4 3 -22 14 -41 11 -18 17 -33 12 -33 -4 0 -3 -4 3
-8 5 -4 23 -37 39 -74 16 -38 33 -68 36 -68 4 0 5 -9 2 -20 -4 -15 -11 -19
-31 -15 -14 2 -30 11 -34 19 -5 8 -14 21 -21 28 -6 7 -19 26 -27 43 -8 16 -22
36 -30 45 -8 8 -25 29 -37 45 -19 25 -24 28 -33 15 -5 -8 -10 -11 -10 -6 0 5
-9 -3 -20 -17 -26 -33 -25 -38 10 -67 17 -14 30 -30 30 -35 0 -6 13 -24 28
-41 35 -36 59 -74 58 -93 -1 -15 -36 -25 -36 -10 0 5 -9 13 -19 17 -11 4 -47
32 -81 62 -34 30 -68 55 -75 56 -7 1 -28 -13 -46 -32 -18 -19 -28 -34 -21 -34
7 0 12 -6 12 -13 0 -8 16 -22 35 -33 19 -10 35 -22 35 -26 0 -5 7 -8 15 -8 9
0 18 -6 21 -14 3 -8 19 -18 36 -21 16 -4 27 -9 24 -12 -6 -7 15 -28 33 -34 16
-6 23 -49 8 -49 -15 0 -81 33 -89 44 -4 6 -8 7 -8 3 0 -5 -13 1 -30 13 -16 12
-39 23 -51 25 -12 3 -32 13 -43 24 -24 21 -64 36 -86 32 -17 -3 -39 -25 -63
-62 -15 -23 -15 -25 3 -37 13 -8 20 -9 20 -1 0 6 7 3 16 -5 22 -23 44 -33 80
-39 17 -3 66 -17 109 -32 44 -15 87 -29 98 -31 42 -8 56 -16 62 -36 9 -26 -9
-45 -28 -30 -8 7 -16 9 -19 6 -3 -3 -32 4 -64 16 -32 11 -68 20 -79 20 -12 0
-25 3 -29 7 -3 4 -16 8 -29 10 -46 7 -62 10 -77 16 -8 4 -24 8 -35 10 -11 1
-25 6 -32 10 -19 12 -26 -13 -9 -31 47 -51 56 -63 56 -71 0 -22 60 -32 274
-44 35 -2 61 -8 64 -15 2 -7 8 -10 13 -7 5 4 6 -1 3 -9 -7 -18 -8 -18 -146
-19 -54 0 -98 -3 -98 -7 0 -4 37 -43 81 -86 45 -44 105 -103 135 -131 29 -29
59 -53 65 -53 7 0 10 -3 6 -6 -5 -5 17 -29 58 -62 26 -21 31 -19 32 11 4 95 4
175 0 200 -2 15 -1 30 3 32 4 2 6 15 5 27 -3 27 11 42 43 45 26 3 24 12 27
-113 1 -55 5 -106 10 -114 5 -7 4 -11 -1 -7 -5 3 -9 -17 -8 -46 1 -29 3 -52 4
-52 1 0 3 -21 4 -47 1 -42 13 -77 18 -52 1 5 2 148 3 317 2 319 3 326 42 327
14 0 21 -36 13 -70 -3 -14 -6 -168 -5 -342 0 -287 2 -319 18 -335 9 -10 18
-13 18 -8 1 6 2 219 3 475 2 455 3 466 24 505 36 67 37 68 60 56 11 -6 30 -30
43 -53 21 -40 23 -56 23 -200 1 -87 -3 -158 -7 -158 -4 0 -3 -8 2 -18 6 -11 6
-24 0 -35 -7 -11 -7 -17 0 -17 5 0 8 -8 6 -17 -2 -10 -4 -18 -4 -18 -1 0 -2
-91 -4 -203 -1 -111 1 -202 5 -202 8 0 5 -21 -6 -39 -5 -7 -5 -16 0 -20 10 -7
13 -91 3 -91 -7 0 -5 -38 3 -46 4 -3 3 -16 -1 -28 -11 -27 4 -67 22 -60 10 3
13 23 12 72 -1 37 3 73 8 80 5 6 5 12 1 12 -5 0 -9 43 -9 95 0 52 4 95 8 95 5
0 5 5 1 12 -10 15 -10 61 0 76 4 7 4 12 -1 12 -10 0 -9 52 1 68 3 6 2 13 -3
17 -6 3 -8 11 -6 18 11 30 13 67 4 67 -6 0 -6 8 1 20 7 13 7 20 1 20 -7 0 -7
8 -2 23 5 14 5 30 0 40 -6 10 -6 17 -1 17 5 0 7 24 5 53 -11 137 -5 160 34
121 14 -14 16 -73 17 -509 1 -355 4 -497 12 -505 8 -8 14 -8 18 -2 4 6 7 181
9 389 1 349 3 379 20 396 13 13 22 15 35 8 18 -10 18 -16 22 -827 l0 -72 65
-66 65 -65 117 118 c65 66 151 153 192 195 40 42 78 76 84 76 6 0 8 2 6 5 -6
6 240 255 252 255 5 0 8 4 7 9 -4 12 188 202 196 194 3 -4 6 1 6 10 0 9 9 22
20 29 11 7 20 17 21 23 0 5 27 33 59 60 32 28 59 55 59 62 1 6 10 10 21 8 25
-5 26 11 3 23 -10 6 -203 10 -438 10 -567 0 -525 -1 -525 20 0 33 16 41 85 46
39 2 72 5 75 6 3 1 10 3 15 5 6 1 12 3 15 5 5 2 38 6 138 14 35 3 67 8 73 11
9 6 58 13 135 19 22 1 45 5 50 9 5 3 43 8 84 12 41 3 90 11 108 16 18 6 39 8
47 5 8 -3 16 -2 19 2 2 4 19 7 38 7 18 -1 36 3 39 8 4 5 35 11 70 13 100 6
141 11 176 22 17 6 35 7 39 4 4 -4 4 0 0 8 -3 8 -9 23 -12 33 -4 9 -10 17 -15
17 -5 0 -35 26 -67 58 -56 56 -58 57 -97 50 -43 -9 -70 -16 -70 -18 0 -1 -15
-3 -33 -5 -19 -2 -41 -7 -50 -11 -10 -4 -20 -8 -24 -8 -3 -1 -9 -4 -13 -8 -4
-4 -14 -4 -22 -1 -8 3 -18 1 -22 -5 -4 -7 -25 -13 -46 -14 -22 -2 -42 -6 -45
-10 -3 -4 -19 -9 -35 -12 -17 -2 -32 -5 -35 -6 -3 -1 -9 -2 -13 -1 -4 1 -18
-4 -30 -11 -12 -6 -44 -13 -72 -15 -27 -3 -54 -8 -60 -13 -5 -4 -24 -10 -42
-13 -17 -3 -36 -8 -41 -11 -10 -6 -55 -16 -93 -20 -14 -2 -35 -8 -46 -15 -12
-6 -35 -11 -52 -11 -17 0 -31 -4 -31 -8 0 -4 -8 -8 -17 -9 -17 -1 -27 -4 -95
-19 -26 -6 -28 -4 -28 24 0 33 15 49 45 48 11 -1 29 7 39 17 17 15 36 20 62
16 4 0 10 3 13 8 8 11 93 49 103 46 5 -2 8 1 8 6 0 9 48 26 64 22 5 -1 12 2
15 6 6 7 35 22 106 54 17 7 41 14 54 15 13 2 31 9 40 16 26 21 60 38 75 38 7
0 19 6 25 14 7 8 21 13 32 11 11 -2 22 2 26 10 3 8 15 15 27 15 12 0 31 7 42
15 10 8 27 15 37 15 11 0 29 8 42 18 20 16 21 20 9 37 -8 10 -14 16 -14 12 0
-4 -14 8 -31 26 -17 17 -35 31 -40 30 -5 -2 -9 2 -9 7 0 6 -6 10 -14 10 -8 0
-17 8 -19 18 -4 14 -5 13 -6 -3 -1 -15 -17 -28 -57 -45 -31 -14 -60 -31 -66
-37 -6 -7 -14 -10 -19 -7 -5 3 -9 1 -9 -5 0 -11 -56 -41 -77 -41 -7 0 -13 -5
-13 -12 0 -6 -3 -8 -6 -5 -4 4 -21 -4 -38 -16 -17 -12 -33 -22 -36 -22 -3 0
-26 -13 -51 -28 -25 -15 -60 -32 -77 -38 -18 -6 -32 -15 -32 -19 0 -4 -13 -13
-30 -19 -16 -5 -30 -14 -30 -18 0 -5 -9 -9 -21 -10 -11 -1 -36 -13 -54 -27
-19 -14 -36 -26 -40 -26 -3 0 -18 -8 -32 -17 -29 -19 -71 -24 -90 -10 -16 12
3 55 29 62 10 4 18 11 18 16 0 5 6 9 13 9 7 0 20 8 29 18 30 31 47 42 68 42
11 0 20 6 20 13 0 6 12 21 26 32 14 11 33 28 42 38 9 9 20 17 25 17 4 0 13 5
20 10 48 41 62 50 73 50 7 0 21 10 31 23 10 12 34 34 53 47 39 27 136 102 163
125 10 9 22 13 27 10 17 -11 15 30 -3 50 -10 11 -20 30 -23 42 -4 13 -13 23
-21 23 -9 0 -21 7 -28 17 -11 15 -16 13 -51 -18 -98 -87 -140 -125 -155 -141
-9 -10 -19 -15 -23 -11 -3 3 -6 2 -6 -3 0 -11 -45 -64 -54 -64 -11 0 -64 -58
-58 -64 3 -3 -1 -6 -9 -6 -8 0 -39 -24 -69 -53 -30 -28 -58 -51 -62 -49 -5 1
-8 -5 -8 -13 0 -8 -6 -15 -12 -15 -7 0 -32 -20 -55 -44 -35 -36 -46 -43 -70
-38 -15 3 -23 7 -17 9 7 2 10 13 7 23 -6 21 102 169 124 170 6 0 14 8 17 18 4
10 22 36 41 58 19 21 35 42 35 47 0 4 7 7 16 7 8 0 13 4 10 8 -3 5 12 27 32
50 20 23 46 54 57 69 11 15 37 46 58 69 20 23 37 45 37 49 0 4 8 15 18 24 35
30 43 56 28 86 -8 14 -18 26 -22 27 -13 1 -64 56 -64 69 0 13 -40 -34 -41 -48
0 -4 -16 -28 -34 -53 -19 -25 -44 -61 -54 -81 -11 -20 -31 -49 -44 -65 -22
-27 -37 -56 -36 -70 0 -4 -4 -10 -9 -13 -14 -8 -82 -108 -82 -120 0 -5 -4 -11
-8 -13 -4 -2 -34 -42 -65 -90 -31 -48 -61 -90 -67 -93 -6 -4 -8 -11 -5 -16 7
-10 6 -10 -43 -14 -44 -3 -49 14 -23 70 12 25 21 49 21 54 0 5 6 16 14 24 8 8
16 23 18 33 2 10 7 22 11 25 5 3 9 13 11 21 1 9 8 23 15 32 7 9 10 16 7 16 -4
0 2 13 13 29 11 15 18 31 15 34 -4 3 4 21 17 39 13 18 23 35 23 38 -1 3 3 16
8 30 5 14 9 27 8 29 -1 2 2 7 7 10 10 6 55 96 54 106 -1 3 16 39 38 79 22 41
37 76 35 79 -3 2 2 10 11 17 31 26 2 144 -32 133 -7 -3 -13 0 -13 6 0 20 -57
72 -61 56z"/>
</g>
</svg>
